<?xml version="1.0" encoding="UTF-8" standalone="no"?>
<!-- Created with Inkscape (http://www.inkscape.org/) -->

<svg
   width="149.99998mm"
   height="160.00002mm"
   viewBox="0 0 149.99998 160.00002"
   version="1.1"
   id="svg1"
   xmlns="http://www.w3.org/2000/svg"
   xmlns:svg="http://www.w3.org/2000/svg">
  <defs
     id="defs1" />
  <g
     id="layer1"
     transform="translate(-26.370633,-46.349933)">
    <path
       style="fill:#b1a139;fill-opacity:1;fill-rule:nonzero;stroke-width:0.264583"
       id="path2"
       d="m 82.414621,169.74487 -56.663918,-32.71493 -1e-6,-65.429856 56.663916,-32.714929 56.663922,32.714926 0,65.429859 z"
       transform="matrix(1.3235936,0,0,1.2226834,-7.7128312,-1.1942995)" />
  </g>
  <g
     id="layer2"
     transform="translate(-26.370633,-46.349933)">
    <path
       style="fill:#d4c147;fill-opacity:1;fill-rule:nonzero;stroke-width:0.264583"
       id="path2-8"
       d="m 82.414621,169.74487 -56.663918,-32.71493 -1e-6,-65.429856 56.663916,-32.714929 56.663922,32.714926 0,65.429859 z"
       transform="matrix(1.1471145,0,0,1.069848,6.4949591,15.3522)" />
  </g>
  <path
     style="fill:#f0db4f;fill-opacity:1;fill-rule:nonzero;stroke-width:0.264583"
     id="path2-8-5"
     d="m 82.414621,169.74487 -56.663918,-32.71493 -1e-6,-65.429856 56.663916,-32.714929 56.663922,32.714926 0,65.429859 z"
     transform="matrix(0.97063531,0,0,0.91701258,-5.3101921,-13.877216)" />
</svg>
